<svg width="2046" height="1171" viewBox="0 0 2046 1171" fill="none" xmlns="http://www.w3.org/2000/svg">
<g filter="url(#filter0_f_1_119)">
<path d="M213.861 1136H1798.14C1815.23 1136 1856.61 1140.48 1890.55 1146C1924.49 1151.52 1936.08 1156 1916.44 1156H95.5641C75.9179 1156 87.5079 1151.52 121.451 1146C155.394 1140.48 196.768 1136 213.861 1136Z" fill="black" fill-opacity="0.4"/>
</g>
<g filter="url(#filter1_dd_1_119)">
<path d="M191 78.8C191 51.9175 191 38.4762 196.232 28.2085C200.834 19.1767 208.177 11.8336 217.208 7.23169C227.476 2 240.917 2 267.8 2H1743.2C1770.08 2 1783.52 2 1793.79 7.23169C1802.82 11.8336 1810.17 19.1767 1814.77 28.2085C1820 38.4762 1820 51.9175 1820 78.8V1043.2C1820 1070.08 1820 1083.52 1814.77 1093.79C1810.17 1102.82 1802.82 1110.17 1793.79 1114.77C1783.52 1120 1770.08 1120 1743.2 1120H267.8C240.918 1120 227.476 1120 217.208 1114.77C208.177 1110.17 200.834 1102.82 196.232 1093.79C191 1083.52 191 1070.08 191 1043.2V78.8Z" fill="#3A4245"/>
</g>
<path d="M195 76.4C195 51.7577 195 39.4365 199.796 30.0244C204.014 21.7453 210.745 15.0141 219.024 10.7957C228.437 6 240.758 6 265.4 6H1745.6C1770.24 6 1782.56 6 1791.98 10.7957C1800.25 15.0141 1806.99 21.7453 1811.2 30.0244C1816 39.4365 1816 51.7577 1816 76.4V1045.6C1816 1070.24 1816 1082.56 1811.2 1091.98C1806.99 1100.25 1800.25 1106.99 1791.98 1111.2C1782.56 1116 1770.24 1116 1745.6 1116H265.4C240.758 1116 228.437 1116 219.024 1111.2C210.745 1106.99 204.014 1100.25 199.796 1091.98C195 1082.56 195 1070.24 195 1045.6V76.4Z" fill="#262C2D"/>
<path d="M199 74C199 51.5979 199 40.3968 203.36 31.8404C207.195 24.3139 213.314 18.1947 220.84 14.3597C229.397 10 240.598 10 263 10H1748C1770.4 10 1781.6 10 1790.16 14.3597C1797.69 18.1947 1803.81 24.3139 1807.64 31.8404C1812 40.3968 1812 51.5979 1812 74V1048C1812 1070.4 1812 1081.6 1807.64 1090.16C1803.81 1097.69 1797.69 1103.81 1790.16 1107.64C1781.6 1112 1770.4 1112 1748 1112H263C240.598 1112 229.397 1112 220.84 1107.64C213.314 1103.81 207.195 1097.69 203.36 1090.16C199 1081.6 199 1070.4 199 1048V74Z" fill="#121515"/>
<rect x="199" y="1059" width="1613" height="30" fill="#262C2D"/>
<path fill-rule="evenodd" clip-rule="evenodd" d="M1005.5 47C1008.54 47 1011 44.5376 1011 41.5C1011 38.4624 1008.54 36 1005.5 36C1002.46 36 1000 38.4624 1000 41.5C1000 44.5376 1002.46 47 1005.5 47Z" fill="#262C2D"/>
<path fill-rule="evenodd" clip-rule="evenodd" d="M1005.5 44.9375C1007.4 44.9375 1008.94 43.3985 1008.94 41.5C1008.94 39.6015 1007.4 38.0625 1005.5 38.0625C1003.6 38.0625 1002.06 39.6015 1002.06 41.5C1002.06 43.3985 1003.6 44.9375 1005.5 44.9375Z" fill="#121515"/>
<path opacity="0.4" fill-rule="evenodd" clip-rule="evenodd" d="M1005.5 40.8125C1005.88 40.8125 1006.19 40.5047 1006.19 40.125C1006.19 39.7453 1005.88 39.4375 1005.5 39.4375C1005.12 39.4375 1004.81 39.7453 1004.81 40.125C1004.81 40.5047 1005.12 40.8125 1005.5 40.8125Z" fill="#636F73"/>
<path d="M0 1091C0 1089.9 0.89543 1089 2 1089H1003.5C1004.6 1089 1005.5 1089.9 1005.5 1091V1120H0V1091Z" fill="url(#paint0_linear_1_119)"/>
<path d="M2010.5 1091C2010.5 1089.9 2009.6 1089 2008.5 1089H1007C1005.9 1089 1005 1089.9 1005 1091V1120H2010.5V1091Z" fill="url(#paint1_linear_1_119)"/>
<path d="M885 1111H1126C1138.7 1111 1149 1101.15 1149 1089H862C862 1101.15 872.297 1111 885 1111Z" fill="#4E4F53"/>
<path d="M885 1111H1126C1138.7 1111 1149 1101.15 1149 1089H862C862 1101.15 872.297 1111 885 1111Z" fill="url(#paint2_linear_1_119)"/>
<path fill-rule="evenodd" clip-rule="evenodd" d="M1004 1120H0C0 1120 44 1148 188.5 1148H1004H1006H1822.5C1967 1148 2011 1120 2011 1120H1006H1004Z" fill="url(#paint3_linear_1_119)"/>
<path d="M637.3 580.8C637.3 573.867 638.8 567.7 641.8 562.3C644.8 556.833 648.967 552.6 654.3 549.6C659.7 546.533 665.8 545 672.6 545C680.933 545 688.067 547.2 694 551.6C699.933 556 703.9 562 705.9 569.6H687.1C685.7 566.667 683.7 564.433 681.1 562.9C678.567 561.367 675.667 560.6 672.4 560.6C667.133 560.6 662.867 562.433 659.6 566.1C656.333 569.767 654.7 574.667 654.7 580.8C654.7 586.933 656.333 591.833 659.6 595.5C662.867 599.167 667.133 601 672.4 601C675.667 601 678.567 600.233 681.1 598.7C683.7 597.167 685.7 594.933 687.1 592H705.9C703.9 599.6 699.933 605.6 694 610C688.067 614.333 680.933 616.5 672.6 616.5C665.8 616.5 659.7 615 654.3 612C648.967 608.933 644.8 604.7 641.8 599.3C638.8 593.9 637.3 587.733 637.3 580.8ZM749.572 616.7C742.972 616.7 736.905 615.167 731.372 612.1C725.905 609.033 721.539 604.767 718.272 599.3C715.072 593.767 713.472 587.567 713.472 580.7C713.472 573.833 715.072 567.667 718.272 562.2C721.539 556.733 725.905 552.467 731.372 549.4C736.905 546.333 742.972 544.8 749.572 544.8C756.172 544.8 762.205 546.333 767.672 549.4C773.205 552.467 777.539 556.733 780.672 562.2C783.872 567.667 785.472 573.833 785.472 580.7C785.472 587.567 783.872 593.767 780.672 599.3C777.472 604.767 773.139 609.033 767.672 612.1C762.205 615.167 756.172 616.7 749.572 616.7ZM749.572 601.1C755.172 601.1 759.639 599.233 762.972 595.5C766.372 591.767 768.072 586.833 768.072 580.7C768.072 574.5 766.372 569.567 762.972 565.9C759.639 562.167 755.172 560.3 749.572 560.3C743.905 560.3 739.372 562.133 735.972 565.8C732.639 569.467 730.972 574.433 730.972 580.7C730.972 586.9 732.639 591.867 735.972 595.6C739.372 599.267 743.905 601.1 749.572 601.1ZM874.485 545.8V616H857.385V573.9L841.685 616H827.885L812.085 573.8V616H794.985V545.8H815.185L834.885 594.4L854.385 545.8H874.485ZM903.882 545.8V616H886.782V545.8H903.882ZM979.074 616H961.974L933.374 572.7V616H916.274V545.8H933.374L961.974 589.3V545.8H979.074V616ZM1038.07 568C1036.8 565.667 1034.97 563.9 1032.57 562.7C1030.24 561.433 1027.47 560.8 1024.27 560.8C1018.74 560.8 1014.3 562.633 1010.97 566.3C1007.64 569.9 1005.97 574.733 1005.97 580.8C1005.97 587.267 1007.7 592.333 1011.17 596C1014.7 599.6 1019.54 601.4 1025.67 601.4C1029.87 601.4 1033.4 600.333 1036.27 598.2C1039.2 596.067 1041.34 593 1042.67 589H1020.97V576.4H1058.17V592.3C1056.9 596.567 1054.74 600.533 1051.67 604.2C1048.67 607.867 1044.84 610.833 1040.17 613.1C1035.5 615.367 1030.24 616.5 1024.37 616.5C1017.44 616.5 1011.24 615 1005.77 612C1000.37 608.933 996.136 604.7 993.07 599.3C990.07 593.9 988.57 587.733 988.57 580.8C988.57 573.867 990.07 567.7 993.07 562.3C996.136 556.833 1000.37 552.6 1005.77 549.6C1011.17 546.533 1017.34 545 1024.27 545C1032.67 545 1039.74 547.033 1045.47 551.1C1051.27 555.167 1055.1 560.8 1056.97 568H1038.07Z" fill="white"/>
<path d="M1114.23 616.7C1109.1 616.7 1104.5 615.867 1100.43 614.2C1096.37 612.533 1093.1 610.067 1090.63 606.8C1088.23 603.533 1086.97 599.6 1086.83 595H1105.03C1105.3 597.6 1106.2 599.6 1107.73 601C1109.27 602.333 1111.27 603 1113.73 603C1116.27 603 1118.27 602.433 1119.73 601.3C1121.2 600.1 1121.93 598.467 1121.93 596.4C1121.93 594.667 1121.33 593.233 1120.13 592.1C1119 590.967 1117.57 590.033 1115.83 589.3C1114.17 588.567 1111.77 587.733 1108.63 586.8C1104.1 585.4 1100.4 584 1097.53 582.6C1094.67 581.2 1092.2 579.133 1090.13 576.4C1088.07 573.667 1087.03 570.1 1087.03 565.7C1087.03 559.167 1089.4 554.067 1094.13 550.4C1098.87 546.667 1105.03 544.8 1112.63 544.8C1120.37 544.8 1126.6 546.667 1131.33 550.4C1136.07 554.067 1138.6 559.2 1138.93 565.8H1120.43C1120.3 563.533 1119.47 561.767 1117.93 560.5C1116.4 559.167 1114.43 558.5 1112.03 558.5C1109.97 558.5 1108.3 559.067 1107.03 560.2C1105.77 561.267 1105.13 562.833 1105.13 564.9C1105.13 567.167 1106.2 568.933 1108.33 570.2C1110.47 571.467 1113.8 572.833 1118.33 574.3C1122.87 575.833 1126.53 577.3 1129.33 578.7C1132.2 580.1 1134.67 582.133 1136.73 584.8C1138.8 587.467 1139.83 590.9 1139.83 595.1C1139.83 599.1 1138.8 602.733 1136.73 606C1134.73 609.267 1131.8 611.867 1127.93 613.8C1124.07 615.733 1119.5 616.7 1114.23 616.7ZM1183.56 616.7C1176.96 616.7 1170.89 615.167 1165.36 612.1C1159.89 609.033 1155.52 604.767 1152.26 599.3C1149.06 593.767 1147.46 587.567 1147.46 580.7C1147.46 573.833 1149.06 567.667 1152.26 562.2C1155.52 556.733 1159.89 552.467 1165.36 549.4C1170.89 546.333 1176.96 544.8 1183.56 544.8C1190.16 544.8 1196.19 546.333 1201.66 549.4C1207.19 552.467 1211.52 556.733 1214.66 562.2C1217.86 567.667 1219.46 573.833 1219.46 580.7C1219.46 587.567 1217.86 593.767 1214.66 599.3C1211.46 604.767 1207.12 609.033 1201.66 612.1C1196.19 615.167 1190.16 616.7 1183.56 616.7ZM1183.56 601.1C1189.16 601.1 1193.62 599.233 1196.96 595.5C1200.36 591.767 1202.06 586.833 1202.06 580.7C1202.06 574.5 1200.36 569.567 1196.96 565.9C1193.62 562.167 1189.16 560.3 1183.56 560.3C1177.89 560.3 1173.36 562.133 1169.96 565.8C1166.62 569.467 1164.96 574.433 1164.96 580.7C1164.96 586.9 1166.62 591.867 1169.96 595.6C1173.36 599.267 1177.89 601.1 1183.56 601.1ZM1262.17 616.7C1255.57 616.7 1249.5 615.167 1243.97 612.1C1238.5 609.033 1234.14 604.767 1230.87 599.3C1227.67 593.767 1226.07 587.567 1226.07 580.7C1226.07 573.833 1227.67 567.667 1230.87 562.2C1234.14 556.733 1238.5 552.467 1243.97 549.4C1249.5 546.333 1255.57 544.8 1262.17 544.8C1268.77 544.8 1274.8 546.333 1280.27 549.4C1285.8 552.467 1290.14 556.733 1293.27 562.2C1296.47 567.667 1298.07 573.833 1298.07 580.7C1298.07 587.567 1296.47 593.767 1293.27 599.3C1290.07 604.767 1285.74 609.033 1280.27 612.1C1274.8 615.167 1268.77 616.7 1262.17 616.7ZM1262.17 601.1C1267.77 601.1 1272.24 599.233 1275.57 595.5C1278.97 591.767 1280.67 586.833 1280.67 580.7C1280.67 574.5 1278.97 569.567 1275.57 565.9C1272.24 562.167 1267.77 560.3 1262.17 560.3C1256.5 560.3 1251.97 562.133 1248.57 565.8C1245.24 569.467 1243.57 574.433 1243.57 580.7C1243.57 586.9 1245.24 591.867 1248.57 595.6C1251.97 599.267 1256.5 601.1 1262.17 601.1ZM1370.38 616H1353.28L1324.68 572.7V616H1307.58V545.8H1324.68L1353.28 589.3V545.8H1370.38V616Z" fill="#FF0000"/>
<g clip-path="url(#clip0_1_119)">
<path fill-rule="evenodd" clip-rule="evenodd" d="M2025 499H2026C2027.1 499 2028 499.895 2028 501V597C2028 598.105 2027.1 599 2026 599H2025V499Z" fill="#121515"/>
<path fill-rule="evenodd" clip-rule="evenodd" d="M1601 559C1601 557.895 1601.9 557 1603 557H1604V620H1603C1601.9 620 1601 619.105 1601 618V559Z" fill="#121515"/>
<path fill-rule="evenodd" clip-rule="evenodd" d="M1601 480C1601 478.895 1601.9 478 1603 478H1604V541H1603C1601.9 541 1601 540.105 1601 539V480Z" fill="#121515"/>
<path fill-rule="evenodd" clip-rule="evenodd" d="M1601 419C1601 417.895 1601.9 417 1603 417H1604V450H1603C1601.9 450 1601 449.105 1601 448V419Z" fill="#121515"/>
<g filter="url(#filter2_dd_1_119)">
<path fill-rule="evenodd" clip-rule="evenodd" d="M1604 365C1604 330.206 1632.21 302 1667 302H1962C1996.79 302 2025 330.206 2025 365V1097C2025 1131.79 1996.79 1160 1962 1160H1667C1632.21 1160 1604 1131.79 1604 1097V365Z" fill="#3A4245"/>
</g>
<path fill-rule="evenodd" clip-rule="evenodd" d="M1609 365C1609 332.967 1634.97 307 1667 307H1962C1994.03 307 2020 332.967 2020 365V1097C2020 1129.03 1994.03 1155 1962 1155H1667C1634.97 1155 1609 1129.03 1609 1097V365Z" fill="#121515"/>
<path fill-rule="evenodd" clip-rule="evenodd" d="M1860 342C1864.42 342 1868 338.418 1868 334C1868 329.582 1864.42 326 1860 326C1855.58 326 1852 329.582 1852 334C1852 338.418 1855.58 342 1860 342Z" fill="#262C2D"/>
<path fill-rule="evenodd" clip-rule="evenodd" d="M1860 339C1862.76 339 1865 336.761 1865 334C1865 331.239 1862.76 329 1860 329C1857.24 329 1855 331.239 1855 334C1855 336.761 1857.24 339 1860 339Z" fill="#121515"/>
<path opacity="0.4" fill-rule="evenodd" clip-rule="evenodd" d="M1860 333C1860.55 333 1861 332.552 1861 332C1861 331.448 1860.55 331 1860 331C1859.45 331 1859 331.448 1859 332C1859 332.552 1859.45 333 1860 333Z" fill="#636F73"/>
<path fill-rule="evenodd" clip-rule="evenodd" d="M1789 334C1789 332.343 1790.34 331 1792 331H1837C1838.66 331 1840 332.343 1840 334V334C1840 335.657 1838.66 337 1837 337H1792C1790.34 337 1789 335.657 1789 334V334Z" fill="#262C2D"/>
</g>
<path d="M1667.21 660.36C1667.21 655.507 1668.26 651.19 1670.36 647.41C1672.46 643.583 1675.37 640.62 1679.11 638.52C1682.89 636.373 1687.16 635.3 1691.92 635.3C1697.75 635.3 1702.74 636.84 1706.9 639.92C1711.05 643 1713.83 647.2 1715.23 652.52H1702.07C1701.09 650.467 1699.69 648.903 1697.87 647.83C1696.09 646.757 1694.06 646.22 1691.78 646.22C1688.09 646.22 1685.1 647.503 1682.82 650.07C1680.53 652.637 1679.39 656.067 1679.39 660.36C1679.39 664.653 1680.53 668.083 1682.82 670.65C1685.1 673.217 1688.09 674.5 1691.78 674.5C1694.06 674.5 1696.09 673.963 1697.87 672.89C1699.69 671.817 1701.09 670.253 1702.07 668.2H1715.23C1713.83 673.52 1711.05 677.72 1706.9 680.8C1702.74 683.833 1697.75 685.35 1691.92 685.35C1687.16 685.35 1682.89 684.3 1679.11 682.2C1675.37 680.053 1672.46 677.09 1670.36 673.31C1668.26 669.53 1667.21 665.213 1667.21 660.36ZM1745.8 685.49C1741.18 685.49 1736.93 684.417 1733.06 682.27C1729.23 680.123 1726.17 677.137 1723.89 673.31C1721.65 669.437 1720.53 665.097 1720.53 660.29C1720.53 655.483 1721.65 651.167 1723.89 647.34C1726.17 643.513 1729.23 640.527 1733.06 638.38C1736.93 636.233 1741.18 635.16 1745.8 635.16C1750.42 635.16 1754.64 636.233 1758.47 638.38C1762.34 640.527 1765.37 643.513 1767.57 647.34C1769.81 651.167 1770.93 655.483 1770.93 660.29C1770.93 665.097 1769.81 669.437 1767.57 673.31C1765.33 677.137 1762.29 680.123 1758.47 682.27C1754.64 684.417 1750.42 685.49 1745.8 685.49ZM1745.8 674.57C1749.72 674.57 1752.84 673.263 1755.18 670.65C1757.56 668.037 1758.75 664.583 1758.75 660.29C1758.75 655.95 1757.56 652.497 1755.18 649.93C1752.84 647.317 1749.72 646.01 1745.8 646.01C1741.83 646.01 1738.66 647.293 1736.28 649.86C1733.94 652.427 1732.78 655.903 1732.78 660.29C1732.78 664.63 1733.94 668.107 1736.28 670.72C1738.66 673.287 1741.83 674.57 1745.8 674.57ZM1833.24 635.86V685H1821.27V655.53L1810.28 685H1800.62L1789.56 655.46V685H1777.59V635.86H1791.73L1805.52 669.88L1819.17 635.86H1833.24ZM1853.81 635.86V685H1841.84V635.86H1853.81ZM1906.45 685H1894.48L1874.46 654.69V685H1862.49V635.86H1874.46L1894.48 666.31V635.86H1906.45V685ZM1947.74 651.4C1946.86 649.767 1945.57 648.53 1943.89 647.69C1942.26 646.803 1940.32 646.36 1938.08 646.36C1934.21 646.36 1931.11 647.643 1928.77 650.21C1926.44 652.73 1925.27 656.113 1925.27 660.36C1925.27 664.887 1926.49 668.433 1928.91 671C1931.39 673.52 1934.77 674.78 1939.06 674.78C1942 674.78 1944.48 674.033 1946.48 672.54C1948.54 671.047 1950.03 668.9 1950.96 666.1H1935.77V657.28H1961.81V668.41C1960.93 671.397 1959.41 674.173 1957.26 676.74C1955.16 679.307 1952.48 681.383 1949.21 682.97C1945.95 684.557 1942.26 685.35 1938.15 685.35C1933.3 685.35 1928.96 684.3 1925.13 682.2C1921.35 680.053 1918.39 677.09 1916.24 673.31C1914.14 669.53 1913.09 665.213 1913.09 660.36C1913.09 655.507 1914.14 651.19 1916.24 647.41C1918.39 643.583 1921.35 640.62 1925.13 638.52C1928.91 636.373 1933.23 635.3 1938.08 635.3C1943.96 635.3 1948.91 636.723 1952.92 639.57C1956.98 642.417 1959.67 646.36 1960.97 651.4H1947.74Z" fill="white"/>
<path d="M1733.74 790.49C1730.15 790.49 1726.93 789.907 1724.08 788.74C1721.23 787.573 1718.95 785.847 1717.22 783.56C1715.54 781.273 1714.65 778.52 1714.56 775.3H1727.3C1727.49 777.12 1728.12 778.52 1729.19 779.5C1730.26 780.433 1731.66 780.9 1733.39 780.9C1735.16 780.9 1736.56 780.503 1737.59 779.71C1738.62 778.87 1739.13 777.727 1739.13 776.28C1739.13 775.067 1738.71 774.063 1737.87 773.27C1737.08 772.477 1736.07 771.823 1734.86 771.31C1733.69 770.797 1732.01 770.213 1729.82 769.56C1726.65 768.58 1724.06 767.6 1722.05 766.62C1720.04 765.64 1718.32 764.193 1716.87 762.28C1715.42 760.367 1714.7 757.87 1714.7 754.79C1714.7 750.217 1716.36 746.647 1719.67 744.08C1722.98 741.467 1727.3 740.16 1732.62 740.16C1738.03 740.16 1742.4 741.467 1745.71 744.08C1749.02 746.647 1750.8 750.24 1751.03 754.86H1738.08C1737.99 753.273 1737.4 752.037 1736.33 751.15C1735.26 750.217 1733.88 749.75 1732.2 749.75C1730.75 749.75 1729.59 750.147 1728.7 750.94C1727.81 751.687 1727.37 752.783 1727.37 754.23C1727.37 755.817 1728.12 757.053 1729.61 757.94C1731.1 758.827 1733.44 759.783 1736.61 760.81C1739.78 761.883 1742.35 762.91 1744.31 763.89C1746.32 764.87 1748.04 766.293 1749.49 768.16C1750.94 770.027 1751.66 772.43 1751.66 775.37C1751.66 778.17 1750.94 780.713 1749.49 783C1748.09 785.287 1746.04 787.107 1743.33 788.46C1740.62 789.813 1737.43 790.49 1733.74 790.49ZM1782.27 790.49C1777.65 790.49 1773.4 789.417 1769.53 787.27C1765.7 785.123 1762.64 782.137 1760.36 778.31C1758.12 774.437 1757 770.097 1757 765.29C1757 760.483 1758.12 756.167 1760.36 752.34C1762.64 748.513 1765.7 745.527 1769.53 743.38C1773.4 741.233 1777.65 740.16 1782.27 740.16C1786.89 740.16 1791.11 741.233 1794.94 743.38C1798.81 745.527 1801.84 748.513 1804.04 752.34C1806.28 756.167 1807.4 760.483 1807.4 765.29C1807.4 770.097 1806.28 774.437 1804.04 778.31C1801.8 782.137 1798.76 785.123 1794.94 787.27C1791.11 789.417 1786.89 790.49 1782.27 790.49ZM1782.27 779.57C1786.19 779.57 1789.31 778.263 1791.65 775.65C1794.03 773.037 1795.22 769.583 1795.22 765.29C1795.22 760.95 1794.03 757.497 1791.65 754.93C1789.31 752.317 1786.19 751.01 1782.27 751.01C1778.3 751.01 1775.13 752.293 1772.75 754.86C1770.41 757.427 1769.25 760.903 1769.25 765.29C1769.25 769.63 1770.41 773.107 1772.75 775.72C1775.13 778.287 1778.3 779.57 1782.27 779.57ZM1837.29 790.49C1832.67 790.49 1828.43 789.417 1824.55 787.27C1820.73 785.123 1817.67 782.137 1815.38 778.31C1813.14 774.437 1812.02 770.097 1812.02 765.29C1812.02 760.483 1813.14 756.167 1815.38 752.34C1817.67 748.513 1820.73 745.527 1824.55 743.38C1828.43 741.233 1832.67 740.16 1837.29 740.16C1841.91 740.16 1846.14 741.233 1849.96 743.38C1853.84 745.527 1856.87 748.513 1859.06 752.34C1861.3 756.167 1862.42 760.483 1862.42 765.29C1862.42 770.097 1861.3 774.437 1859.06 778.31C1856.82 782.137 1853.79 785.123 1849.96 787.27C1846.14 789.417 1841.91 790.49 1837.29 790.49ZM1837.29 779.57C1841.21 779.57 1844.34 778.263 1846.67 775.65C1849.05 773.037 1850.24 769.583 1850.24 765.29C1850.24 760.95 1849.05 757.497 1846.67 754.93C1844.34 752.317 1841.21 751.01 1837.29 751.01C1833.33 751.01 1830.15 752.293 1827.77 754.86C1825.44 757.427 1824.27 760.903 1824.27 765.29C1824.27 769.63 1825.44 773.107 1827.77 775.72C1830.15 778.287 1833.33 779.57 1837.29 779.57ZM1913.04 790H1901.07L1881.05 759.69V790H1869.08V740.86H1881.05L1901.07 771.31V740.86H1913.04V790Z" fill="#FF0000"/>
<defs>
<filter id="filter0_f_1_119" x="71" y="1121" width="1870" height="50" filterUnits="userSpaceOnUse" color-interpolation-filters="sRGB">
<feFlood flood-opacity="0" result="BackgroundImageFix"/>
<feBlend mode="normal" in="SourceGraphic" in2="BackgroundImageFix" result="shape"/>
<feGaussianBlur stdDeviation="7.5" result="effect1_foregroundBlur_1_119"/>
</filter>
<filter id="filter1_dd_1_119" x="187" y="0" width="1637" height="1126" filterUnits="userSpaceOnUse" color-interpolation-filters="sRGB">
<feFlood flood-opacity="0" result="BackgroundImageFix"/>
<feColorMatrix in="SourceAlpha" type="matrix" values="0 0 0 0 0 0 0 0 0 0 0 0 0 0 0 0 0 0 127 0" result="hardAlpha"/>
<feOffset/>
<feGaussianBlur stdDeviation="1"/>
<feColorMatrix type="matrix" values="0 0 0 0 0 0 0 0 0 0.0823529 0 0 0 0 0.25098 0 0 0 0.14 0"/>
<feBlend mode="normal" in2="BackgroundImageFix" result="effect1_dropShadow_1_119"/>
<feColorMatrix in="SourceAlpha" type="matrix" values="0 0 0 0 0 0 0 0 0 0 0 0 0 0 0 0 0 0 127 0" result="hardAlpha"/>
<feOffset dy="2"/>
<feGaussianBlur stdDeviation="2"/>
<feColorMatrix type="matrix" values="0 0 0 0 0 0 0 0 0 0.0823529 0 0 0 0 0.25098 0 0 0 0.05 0"/>
<feBlend mode="normal" in2="effect1_dropShadow_1_119" result="effect2_dropShadow_1_119"/>
<feBlend mode="normal" in="SourceGraphic" in2="effect2_dropShadow_1_119" result="shape"/>
</filter>
<filter id="filter2_dd_1_119" x="1600" y="300" width="429" height="866" filterUnits="userSpaceOnUse" color-interpolation-filters="sRGB">
<feFlood flood-opacity="0" result="BackgroundImageFix"/>
<feColorMatrix in="SourceAlpha" type="matrix" values="0 0 0 0 0 0 0 0 0 0 0 0 0 0 0 0 0 0 127 0" result="hardAlpha"/>
<feOffset/>
<feGaussianBlur stdDeviation="1"/>
<feColorMatrix type="matrix" values="0 0 0 0 0 0 0 0 0 0.0823529 0 0 0 0 0.25098 0 0 0 0.14 0"/>
<feBlend mode="normal" in2="BackgroundImageFix" result="effect1_dropShadow_1_119"/>
<feColorMatrix in="SourceAlpha" type="matrix" values="0 0 0 0 0 0 0 0 0 0 0 0 0 0 0 0 0 0 127 0" result="hardAlpha"/>
<feOffset dy="2"/>
<feGaussianBlur stdDeviation="2"/>
<feColorMatrix type="matrix" values="0 0 0 0 0 0 0 0 0 0.0823529 0 0 0 0 0.25098 0 0 0 0.05 0"/>
<feBlend mode="normal" in2="effect1_dropShadow_1_119" result="effect2_dropShadow_1_119"/>
<feBlend mode="normal" in="SourceGraphic" in2="effect2_dropShadow_1_119" result="shape"/>
</filter>
<linearGradient id="paint0_linear_1_119" x1="-1.73029e-06" y1="1105" x2="1005.5" y2="1105" gradientUnits="userSpaceOnUse">
<stop stop-color="#303135"/>
<stop offset="0.0218797" stop-color="#535458"/>
<stop offset="0.0363004" stop-color="#4D4E52"/>
<stop offset="0.05818" stop-color="#333438"/>
<stop offset="0.0865241" stop-color="#35363A"/>
<stop offset="0.135753" stop-color="#4E4F53"/>
<stop offset="0.756906" stop-color="#818286"/>
<stop offset="1" stop-color="#818286"/>
</linearGradient>
<linearGradient id="paint1_linear_1_119" x1="2010.5" y1="1105" x2="1005" y2="1105" gradientUnits="userSpaceOnUse">
<stop stop-color="#303135"/>
<stop offset="0.0218797" stop-color="#535458"/>
<stop offset="0.0363004" stop-color="#4D4E52"/>
<stop offset="0.05818" stop-color="#333438"/>
<stop offset="0.0865241" stop-color="#35363A"/>
<stop offset="0.135753" stop-color="#4E4F53"/>
<stop offset="0.756906" stop-color="#818286"/>
<stop offset="1" stop-color="#818286"/>
</linearGradient>
<linearGradient id="paint2_linear_1_119" x1="862" y1="1100" x2="1149" y2="1100" gradientUnits="userSpaceOnUse">
<stop stop-opacity="0.5"/>
<stop offset="0.139373" stop-color="#818487" stop-opacity="0"/>
<stop offset="0.860627" stop-color="#818487" stop-opacity="0"/>
<stop offset="1" stop-opacity="0.5"/>
</linearGradient>
<linearGradient id="paint3_linear_1_119" x1="1005.5" y1="1120" x2="1005.5" y2="1148" gradientUnits="userSpaceOnUse">
<stop stop-color="#303135"/>
<stop offset="1" stop-color="#08090D"/>
</linearGradient>
<clipPath id="clip0_1_119">
<rect width="427" height="858" fill="white" transform="translate(1601 302)"/>
</clipPath>
</defs>
</svg>
